<?xml version="1.0" encoding="UTF-8" standalone="no"?>
<!DOCTYPE svg PUBLIC "-//W3C//DTD SVG 1.1//EN"
 "http://www.w3.org/Graphics/SVG/1.1/DTD/svg11.dtd">
<!-- Generated by graphviz version 12.2.1 (20241206.2353)
 -->
<!-- Title: kubernetes_state Pages: 1 -->
<svg width="423pt" height="464pt"
 viewBox="0.00 0.00 423.00 464.00" xmlns="http://www.w3.org/2000/svg" xmlns:xlink="http://www.w3.org/1999/xlink">
<g id="graph0" class="graph" transform="scale(1 1) rotate(0) translate(4 460)">
<title>kubernetes_state</title>
<polygon fill="white" stroke="none" points="-4,4 -4,-460 419,-460 419,4 -4,4"/>
<!-- Kubernetes -->
<g id="node1" class="node">
<title>Kubernetes</title>
<path fill="#e5f5f9" stroke="#2980b9" d="M226.38,-456C226.38,-456 131.62,-456 131.62,-456 125.62,-456 119.62,-450 119.62,-444 119.62,-444 119.62,-432 119.62,-432 119.62,-426 125.62,-420 131.62,-420 131.62,-420 226.38,-420 226.38,-420 232.38,-420 238.38,-426 238.38,-432 238.38,-432 238.38,-444 238.38,-444 238.38,-450 232.38,-456 226.38,-456"/>
<text text-anchor="middle" x="179" y="-433.73" font-family="Arial" font-size="12.00">Kubernetes Cluster</text>
</g>
<!-- Vault -->
<g id="node2" class="node">
<title>Vault</title>
<path fill="#d5f5e3" stroke="#27ae60" d="M117,-120C117,-120 87,-120 87,-120 81,-120 75,-114 75,-108 75,-108 75,-96 75,-96 75,-90 81,-84 87,-84 87,-84 117,-84 117,-84 123,-84 129,-90 129,-96 129,-96 129,-108 129,-108 129,-114 123,-120 117,-120"/>
<text text-anchor="middle" x="102" y="-97.72" font-family="Arial" font-size="12.00">Vault</text>
</g>
<!-- Kubernetes&#45;&gt;Vault -->
<g id="edge1" class="edge">
<title>Kubernetes&#45;&gt;Vault</title>
<path fill="none" stroke="black" d="M119.4,-433.77C67.32,-427.35 0,-408.67 0,-355 0,-355 0,-355 0,-185 0,-150.8 35.26,-128.47 64.32,-115.87"/>
<polygon fill="black" stroke="black" points="65.32,-119.25 73.26,-112.24 62.68,-112.76 65.32,-119.25"/>
<text text-anchor="middle" x="12" y="-266.5" font-family="Arial" font-size="10.00">hosts</text>
</g>
<!-- ESO -->
<g id="node3" class="node">
<title>ESO</title>
<path fill="#d5f5e3" stroke="#27ae60" d="M243.62,-372C243.62,-372 114.37,-372 114.37,-372 108.38,-372 102.38,-366 102.38,-360 102.38,-360 102.38,-348 102.38,-348 102.38,-342 108.38,-336 114.38,-336 114.38,-336 243.62,-336 243.62,-336 249.62,-336 255.62,-342 255.62,-348 255.62,-348 255.62,-360 255.62,-360 255.62,-366 249.62,-372 243.62,-372"/>
<text text-anchor="middle" x="179" y="-349.73" font-family="Arial" font-size="12.00">External Secrets Operator</text>
</g>
<!-- Kubernetes&#45;&gt;ESO -->
<g id="edge2" class="edge">
<title>Kubernetes&#45;&gt;ESO</title>
<path fill="none" stroke="black" d="M179,-419.61C179,-409.17 179,-395.64 179,-383.66"/>
<polygon fill="black" stroke="black" points="182.5,-383.88 179,-373.88 175.5,-383.88 182.5,-383.88"/>
<text text-anchor="middle" x="191" y="-392.5" font-family="Arial" font-size="10.00">hosts</text>
</g>
<!-- Postgres -->
<g id="node4" class="node">
<title>Postgres</title>
<path fill="#d5f5e3" stroke="#27ae60" d="M265.62,-36C265.62,-36 226.38,-36 226.38,-36 220.38,-36 214.38,-30 214.38,-24 214.38,-24 214.38,-12 214.38,-12 214.38,-6 220.38,0 226.38,0 226.38,0 265.62,0 265.62,0 271.62,0 277.62,-6 277.62,-12 277.62,-12 277.62,-24 277.62,-24 277.62,-30 271.62,-36 265.62,-36"/>
<text text-anchor="middle" x="246" y="-13.72" font-family="Arial" font-size="12.00">Postgres</text>
</g>
<!-- Kubernetes&#45;&gt;Postgres -->
<g id="edge3" class="edge">
<title>Kubernetes&#45;&gt;Postgres</title>
<path fill="none" stroke="black" d="M238.62,-425.99C301.32,-412.66 391,-387.85 391,-355 391,-355 391,-355 391,-101 391,-53.71 331.85,-33.38 289.11,-24.86"/>
<polygon fill="black" stroke="black" points="289.78,-21.42 279.31,-23.07 288.52,-28.31 289.78,-21.42"/>
<text text-anchor="middle" x="403" y="-224.5" font-family="Arial" font-size="10.00">hosts</text>
</g>
<!-- Vault&#45;&gt;Postgres -->
<g id="edge4" class="edge">
<title>Vault&#45;&gt;Postgres</title>
<path fill="none" stroke="#3498db" stroke-width="2" d="M129.42,-85.38C150.53,-73.36 180.07,-56.54 204.13,-42.84"/>
<polygon fill="#3498db" stroke="#3498db" stroke-width="2" points="205.85,-45.89 212.81,-37.9 202.38,-39.81 205.85,-45.89"/>
<text text-anchor="middle" x="222.75" y="-56.5" font-family="Arial" font-size="10.00">SQL Configuration</text>
</g>
<!-- Generator -->
<g id="node5" class="node">
<title>Generator</title>
<path fill="#e8daef" stroke="#8e44ad" d="M163.62,-204C163.62,-204 40.38,-204 40.38,-204 34.38,-204 28.38,-198 28.38,-192 28.38,-192 28.38,-180 28.38,-180 28.38,-174 34.38,-168 40.38,-168 40.38,-168 163.62,-168 163.62,-168 169.62,-168 175.62,-174 175.62,-180 175.62,-180 175.62,-192 175.62,-192 175.62,-198 169.62,-204 163.62,-204"/>
<text text-anchor="middle" x="102" y="-181.72" font-family="Arial" font-size="12.00">Generator: psql&#45;example</text>
</g>
<!-- ESO&#45;&gt;Generator -->
<g id="edge5" class="edge">
<title>ESO&#45;&gt;Generator</title>
<path fill="none" stroke="#9b59b6" stroke-width="2" d="M152.49,-335.52C137.34,-323.97 119.56,-307.4 110.25,-288 99.69,-265.99 98.15,-238.16 98.96,-217.29"/>
<polygon fill="#9b59b6" stroke="#9b59b6" stroke-width="2" points="102.45,-217.63 99.59,-207.43 95.46,-217.18 102.45,-217.63"/>
<text text-anchor="middle" x="130.12" y="-266.5" font-family="Arial" font-size="10.00">Manages</text>
</g>
<!-- ExternalSecret -->
<g id="node6" class="node">
<title>ExternalSecret</title>
<path fill="#fcf3cf" stroke="#f1c40f" d="M336.62,-288C336.62,-288 171.38,-288 171.38,-288 165.38,-288 159.38,-282 159.38,-276 159.38,-276 159.38,-264 159.38,-264 159.38,-258 165.38,-252 171.38,-252 171.38,-252 336.62,-252 336.62,-252 342.62,-252 348.62,-258 348.62,-264 348.62,-264 348.62,-276 348.62,-276 348.62,-282 342.62,-288 336.62,-288"/>
<text text-anchor="middle" x="254" y="-265.73" font-family="Arial" font-size="12.00">ExternalSecret: psql&#45;example&#45;es</text>
</g>
<!-- ESO&#45;&gt;ExternalSecret -->
<g id="edge6" class="edge">
<title>ESO&#45;&gt;ExternalSecret</title>
<path fill="none" stroke="#9b59b6" stroke-width="2" d="M194.91,-335.61C204.95,-324.63 218.13,-310.22 229.49,-297.8"/>
<polygon fill="#9b59b6" stroke="#9b59b6" stroke-width="2" points="231.91,-300.34 236.07,-290.6 226.74,-295.62 231.91,-300.34"/>
<text text-anchor="middle" x="240.87" y="-308.5" font-family="Arial" font-size="10.00">Manages</text>
</g>
<!-- Generator&#45;&gt;Vault -->
<g id="edge8" class="edge">
<title>Generator&#45;&gt;Vault</title>
<path fill="none" stroke="#8e44ad" stroke-width="2" d="M102,-167.61C102,-157.61 102,-144.76 102,-133.16"/>
<polygon fill="#8e44ad" stroke="#8e44ad" stroke-width="2" points="105.5,-133.39 102,-123.39 98.5,-133.39 105.5,-133.39"/>
<text text-anchor="middle" x="144.38" y="-140.5" font-family="Arial" font-size="10.00">Fetches creds from</text>
</g>
<!-- ExternalSecret&#45;&gt;Generator -->
<g id="edge7" class="edge">
<title>ExternalSecret&#45;&gt;Generator</title>
<path fill="none" stroke="#8e44ad" stroke-width="2" d="M221.76,-251.61C199.6,-239.65 169.89,-223.63 145.62,-210.53"/>
<polygon fill="#8e44ad" stroke="#8e44ad" stroke-width="2" points="147.32,-207.47 136.85,-205.8 143.99,-213.63 147.32,-207.47"/>
<text text-anchor="middle" x="212.23" y="-224.5" font-family="Arial" font-size="10.00">References</text>
</g>
<!-- Secret -->
<g id="node7" class="node">
<title>Secret</title>
<path fill="#fdedec" stroke="#e74c3c" d="M350.5,-204C350.5,-204 205.5,-204 205.5,-204 199.5,-204 193.5,-198 193.5,-192 193.5,-192 193.5,-180 193.5,-180 193.5,-174 199.5,-168 205.5,-168 205.5,-168 350.5,-168 350.5,-168 356.5,-168 362.5,-174 362.5,-180 362.5,-180 362.5,-192 362.5,-192 362.5,-198 356.5,-204 350.5,-204"/>
<text text-anchor="middle" x="278" y="-181.72" font-family="Arial" font-size="12.00">Secret: psql&#45;example&#45;for&#45;use</text>
</g>
<!-- ExternalSecret&#45;&gt;Secret -->
<g id="edge9" class="edge">
<title>ExternalSecret&#45;&gt;Secret</title>
<path fill="none" stroke="#f1c40f" stroke-width="2" d="M259.09,-251.61C262.05,-241.5 265.86,-228.48 269.28,-216.79"/>
<polygon fill="#f1c40f" stroke="#f1c40f" stroke-width="2" points="272.62,-217.85 272.07,-207.27 265.9,-215.88 272.62,-217.85"/>
<text text-anchor="middle" x="284.69" y="-224.5" font-family="Arial" font-size="10.00">Created</text>
</g>
</g>
</svg>
