<?xml version="1.0" encoding="UTF-8" standalone="no"?>
<!DOCTYPE svg PUBLIC "-//W3C//DTD SVG 1.1//EN"
 "http://www.w3.org/Graphics/SVG/1.1/DTD/svg11.dtd">
<!-- Generated by graphviz version 12.2.1 (20241206.2353)
 -->
<!-- Title: kubernetes_state Pages: 1 -->
<svg width="315pt" height="128pt"
 viewBox="0.00 0.00 314.62 128.00" xmlns="http://www.w3.org/2000/svg" xmlns:xlink="http://www.w3.org/1999/xlink">
<g id="graph0" class="graph" transform="scale(1 1) rotate(0) translate(4 124)">
<title>kubernetes_state</title>
<polygon fill="white" stroke="none" points="-4,4 -4,-124 310.62,-124 310.62,4 -4,4"/>
<!-- Kubernetes -->
<g id="node1" class="node">
<title>Kubernetes</title>
<path fill="#e5f5f9" stroke="#2980b9" d="M196.38,-120C196.38,-120 101.62,-120 101.62,-120 95.62,-120 89.62,-114 89.62,-108 89.62,-108 89.62,-96 89.62,-96 89.62,-90 95.62,-84 101.62,-84 101.62,-84 196.38,-84 196.38,-84 202.38,-84 208.38,-90 208.38,-96 208.38,-96 208.38,-108 208.38,-108 208.38,-114 202.38,-120 196.38,-120"/>
<text text-anchor="middle" x="149" y="-97.72" font-family="Arial" font-size="12.00">Kubernetes Cluster</text>
</g>
<!-- Vault -->
<g id="node2" class="node">
<title>Vault</title>
<path fill="#fadbd8" stroke="#e74c3c" d="M42,-36C42,-36 12,-36 12,-36 6,-36 0,-30 0,-24 0,-24 0,-12 0,-12 0,-6 6,0 12,0 12,0 42,0 42,0 48,0 54,-6 54,-12 54,-12 54,-24 54,-24 54,-30 48,-36 42,-36"/>
<text text-anchor="middle" x="27" y="-13.72" font-family="Arial" font-size="12.00">Vault</text>
</g>
<!-- Kubernetes&#45;&gt;Vault -->
<g id="edge1" class="edge">
<title>Kubernetes&#45;&gt;Vault</title>
<path fill="none" stroke="black" stroke-dasharray="5,2" d="M123.13,-83.61C105.42,-71.71 81.71,-55.77 62.27,-42.71"/>
<polygon fill="black" stroke="black" points="64.34,-39.88 54.09,-37.21 60.44,-45.69 64.34,-39.88"/>
<text text-anchor="middle" x="112.18" y="-56.5" font-family="Arial" font-size="10.00">pending</text>
</g>
<!-- ESO -->
<g id="node3" class="node">
<title>ESO</title>
<path fill="#fadbd8" stroke="#e74c3c" d="M213.62,-36C213.62,-36 84.37,-36 84.37,-36 78.38,-36 72.38,-30 72.38,-24 72.38,-24 72.38,-12 72.38,-12 72.38,-6 78.38,0 84.38,0 84.38,0 213.62,0 213.62,0 219.62,0 225.62,-6 225.62,-12 225.62,-12 225.62,-24 225.62,-24 225.62,-30 219.62,-36 213.62,-36"/>
<text text-anchor="middle" x="149" y="-13.72" font-family="Arial" font-size="12.00">External Secrets Operator</text>
</g>
<!-- Kubernetes&#45;&gt;ESO -->
<g id="edge2" class="edge">
<title>Kubernetes&#45;&gt;ESO</title>
<path fill="none" stroke="black" stroke-dasharray="5,2" d="M149,-83.61C149,-73.17 149,-59.64 149,-47.66"/>
<polygon fill="black" stroke="black" points="152.5,-47.88 149,-37.88 145.5,-47.88 152.5,-47.88"/>
<text text-anchor="middle" x="165.88" y="-56.5" font-family="Arial" font-size="10.00">pending</text>
</g>
<!-- Postgres -->
<g id="node4" class="node">
<title>Postgres</title>
<path fill="#fadbd8" stroke="#e74c3c" d="M294.62,-36C294.62,-36 255.38,-36 255.38,-36 249.38,-36 243.38,-30 243.38,-24 243.38,-24 243.38,-12 243.38,-12 243.38,-6 249.38,0 255.38,0 255.38,0 294.62,0 294.62,0 300.62,0 306.62,-6 306.62,-12 306.62,-12 306.62,-24 306.62,-24 306.62,-30 300.62,-36 294.62,-36"/>
<text text-anchor="middle" x="275" y="-13.72" font-family="Arial" font-size="12.00">Postgres</text>
</g>
<!-- Kubernetes&#45;&gt;Postgres -->
<g id="edge3" class="edge">
<title>Kubernetes&#45;&gt;Postgres</title>
<path fill="none" stroke="black" stroke-dasharray="5,2" d="M175.72,-83.61C194.1,-71.65 218.72,-55.63 238.85,-42.53"/>
<polygon fill="black" stroke="black" points="240.58,-45.58 247.05,-37.19 236.76,-39.71 240.58,-45.58"/>
<text text-anchor="middle" x="236.42" y="-56.5" font-family="Arial" font-size="10.00">pending</text>
</g>
</g>
</svg>
