<?xml version="1.0" encoding="UTF-8" standalone="no"?>
<!DOCTYPE svg PUBLIC "-//W3C//DTD SVG 1.1//EN"
 "http://www.w3.org/Graphics/SVG/1.1/DTD/svg11.dtd">
<!-- Generated by graphviz version 12.2.1 (20241206.2353)
 -->
<!-- Title: kubernetes_state Pages: 1 -->
<svg width="478pt" height="464pt"
 viewBox="0.00 0.00 478.00 464.00" xmlns="http://www.w3.org/2000/svg" xmlns:xlink="http://www.w3.org/1999/xlink">
<g id="graph0" class="graph" transform="scale(1 1) rotate(0) translate(4 460)">
<title>kubernetes_state</title>
<polygon fill="white" stroke="none" points="-4,4 -4,-460 474,-460 474,4 -4,4"/>
<!-- Kubernetes -->
<g id="node1" class="node">
<title>Kubernetes</title>
<path fill="#e5f5f9" stroke="#2980b9" d="M205.38,-456C205.38,-456 110.62,-456 110.62,-456 104.62,-456 98.62,-450 98.62,-444 98.62,-444 98.62,-432 98.62,-432 98.62,-426 104.62,-420 110.62,-420 110.62,-420 205.38,-420 205.38,-420 211.38,-420 217.38,-426 217.38,-432 217.38,-432 217.38,-444 217.38,-444 217.38,-450 211.38,-456 205.38,-456"/>
<text text-anchor="middle" x="158" y="-433.73" font-family="Arial" font-size="12.00">Kubernetes Cluster</text>
</g>
<!-- Vault -->
<g id="node2" class="node">
<title>Vault</title>
<path fill="#d5f5e3" stroke="#27ae60" d="M117,-120C117,-120 87,-120 87,-120 81,-120 75,-114 75,-108 75,-108 75,-96 75,-96 75,-90 81,-84 87,-84 87,-84 117,-84 117,-84 123,-84 129,-90 129,-96 129,-96 129,-108 129,-108 129,-114 123,-120 117,-120"/>
<text text-anchor="middle" x="102" y="-97.72" font-family="Arial" font-size="12.00">Vault</text>
</g>
<!-- Kubernetes&#45;&gt;Vault -->
<g id="edge1" class="edge">
<title>Kubernetes&#45;&gt;Vault</title>
<path fill="none" stroke="black" d="M98.27,-430.13C53.52,-421.27 0,-401.05 0,-355 0,-355 0,-355 0,-185 0,-150.8 35.26,-128.47 64.32,-115.87"/>
<polygon fill="black" stroke="black" points="65.32,-119.25 73.26,-112.24 62.68,-112.76 65.32,-119.25"/>
<text text-anchor="middle" x="12" y="-266.5" font-family="Arial" font-size="10.00">hosts</text>
</g>
<!-- ESO -->
<g id="node3" class="node">
<title>ESO</title>
<path fill="#d5f5e3" stroke="#27ae60" d="M222.62,-372C222.62,-372 93.37,-372 93.37,-372 87.38,-372 81.38,-366 81.38,-360 81.38,-360 81.38,-348 81.38,-348 81.38,-342 87.38,-336 93.38,-336 93.38,-336 222.62,-336 222.62,-336 228.62,-336 234.62,-342 234.62,-348 234.62,-348 234.62,-360 234.62,-360 234.62,-366 228.62,-372 222.62,-372"/>
<text text-anchor="middle" x="158" y="-349.73" font-family="Arial" font-size="12.00">External Secrets Operator</text>
</g>
<!-- Kubernetes&#45;&gt;ESO -->
<g id="edge2" class="edge">
<title>Kubernetes&#45;&gt;ESO</title>
<path fill="none" stroke="black" d="M158,-419.61C158,-409.17 158,-395.64 158,-383.66"/>
<polygon fill="black" stroke="black" points="161.5,-383.88 158,-373.88 154.5,-383.88 161.5,-383.88"/>
<text text-anchor="middle" x="170" y="-392.5" font-family="Arial" font-size="10.00">hosts</text>
</g>
<!-- Postgres -->
<g id="node4" class="node">
<title>Postgres</title>
<path fill="#d5f5e3" stroke="#27ae60" d="M293.62,-36C293.62,-36 254.38,-36 254.38,-36 248.38,-36 242.38,-30 242.38,-24 242.38,-24 242.38,-12 242.38,-12 242.38,-6 248.38,0 254.38,0 254.38,0 293.62,0 293.62,0 299.62,0 305.62,-6 305.62,-12 305.62,-12 305.62,-24 305.62,-24 305.62,-30 299.62,-36 293.62,-36"/>
<text text-anchor="middle" x="274" y="-13.72" font-family="Arial" font-size="12.00">Postgres</text>
</g>
<!-- Kubernetes&#45;&gt;Postgres -->
<g id="edge3" class="edge">
<title>Kubernetes&#45;&gt;Postgres</title>
<path fill="none" stroke="black" d="M217.67,-432.12C302.03,-423.56 446,-402.05 446,-355 446,-355 446,-355 446,-101 446,-44.07 368.27,-26.62 317.32,-21.3"/>
<polygon fill="black" stroke="black" points="317.73,-17.83 307.46,-20.41 317.1,-24.8 317.73,-17.83"/>
<text text-anchor="middle" x="458" y="-224.5" font-family="Arial" font-size="10.00">hosts</text>
</g>
<!-- Vault&#45;&gt;Postgres -->
<g id="edge4" class="edge">
<title>Vault&#45;&gt;Postgres</title>
<path fill="none" stroke="#3498db" stroke-width="2" d="M129.25,-88.01C156.38,-75.07 198.46,-55.02 230.26,-39.85"/>
<polygon fill="#3498db" stroke="#3498db" stroke-width="2" points="231.64,-43.07 239.17,-35.61 228.63,-36.75 231.64,-43.07"/>
<text text-anchor="middle" x="238.42" y="-56.5" font-family="Arial" font-size="10.00">SQL Configuration</text>
</g>
<!-- Generator -->
<g id="node5" class="node">
<title>Generator</title>
<path fill="#e8daef" stroke="#8e44ad" d="M163.62,-204C163.62,-204 40.38,-204 40.38,-204 34.38,-204 28.38,-198 28.38,-192 28.38,-192 28.38,-180 28.38,-180 28.38,-174 34.38,-168 40.38,-168 40.38,-168 163.62,-168 163.62,-168 169.62,-168 175.62,-174 175.62,-180 175.62,-180 175.62,-192 175.62,-192 175.62,-198 169.62,-204 163.62,-204"/>
<text text-anchor="middle" x="102" y="-181.72" font-family="Arial" font-size="12.00">Generator: psql&#45;example</text>
</g>
<!-- ESO&#45;&gt;Generator -->
<g id="edge5" class="edge">
<title>ESO&#45;&gt;Generator</title>
<path fill="none" stroke="#9b59b6" stroke-width="2" d="M119.21,-335.66C100.15,-324.9 79.01,-309.08 68.25,-288 56.26,-264.52 68.1,-235.86 80.94,-215.08"/>
<polygon fill="#9b59b6" stroke="#9b59b6" stroke-width="2" points="83.73,-217.21 86.36,-206.94 77.9,-213.33 83.73,-217.21"/>
<text text-anchor="middle" x="88.12" y="-266.5" font-family="Arial" font-size="10.00">Manages</text>
</g>
<!-- ExternalSecret -->
<g id="node6" class="node">
<title>ExternalSecret</title>
<path fill="#fcf3cf" stroke="#f1c40f" d="M294.62,-288C294.62,-288 129.38,-288 129.38,-288 123.38,-288 117.38,-282 117.38,-276 117.38,-276 117.38,-264 117.38,-264 117.38,-258 123.38,-252 129.38,-252 129.38,-252 294.62,-252 294.62,-252 300.62,-252 306.62,-258 306.62,-264 306.62,-264 306.62,-276 306.62,-276 306.62,-282 300.62,-288 294.62,-288"/>
<text text-anchor="middle" x="212" y="-265.73" font-family="Arial" font-size="12.00">ExternalSecret: psql&#45;example&#45;es</text>
</g>
<!-- ESO&#45;&gt;ExternalSecret -->
<g id="edge7" class="edge">
<title>ESO&#45;&gt;ExternalSecret</title>
<path fill="none" stroke="#9b59b6" stroke-width="2" d="M169.45,-335.61C176.47,-324.96 185.61,-311.07 193.62,-298.91"/>
<polygon fill="#9b59b6" stroke="#9b59b6" stroke-width="2" points="196.32,-301.17 198.9,-290.89 190.48,-297.32 196.32,-301.17"/>
<text text-anchor="middle" x="208.11" y="-308.5" font-family="Arial" font-size="10.00">Manages</text>
</g>
<!-- Generator&#45;&gt;Vault -->
<g id="edge6" class="edge">
<title>Generator&#45;&gt;Vault</title>
<path fill="none" stroke="#8e44ad" stroke-width="2" d="M102,-167.61C102,-157.61 102,-144.76 102,-133.16"/>
<polygon fill="#8e44ad" stroke="#8e44ad" stroke-width="2" points="105.5,-133.39 102,-123.39 98.5,-133.39 105.5,-133.39"/>
<text text-anchor="middle" x="144.38" y="-140.5" font-family="Arial" font-size="10.00">Fetches creds from</text>
</g>
<!-- ExternalSecret&#45;&gt;Generator -->
<g id="edge8" class="edge">
<title>ExternalSecret&#45;&gt;Generator</title>
<path fill="none" stroke="#8e44ad" stroke-width="2" d="M188.67,-251.61C173.21,-240.09 152.69,-224.79 135.5,-211.97"/>
<polygon fill="#8e44ad" stroke="#8e44ad" stroke-width="2" points="137.83,-209.34 127.72,-206.17 133.65,-214.96 137.83,-209.34"/>
<text text-anchor="middle" x="188.71" y="-224.5" font-family="Arial" font-size="10.00">References</text>
</g>
<!-- ExternalSecret&#45;&gt;ExternalSecret -->
<g id="edge10" class="edge">
<title>ExternalSecret&#45;&gt;ExternalSecret</title>
<path fill="none" stroke="#9b59b6" stroke-width="2" d="M306.9,-276.67C317.65,-275.42 324.62,-273.2 324.62,-270 324.62,-268.35 322.77,-266.96 319.5,-265.83"/>
<polygon fill="#9b59b6" stroke="#9b59b6" stroke-width="2" points="320.36,-262.43 309.87,-263.92 319,-269.3 320.36,-262.43"/>
<text text-anchor="middle" x="371.5" y="-266.5" font-family="Arial" font-size="10.00">Reconciles in interval</text>
</g>
<!-- Secret -->
<g id="node7" class="node">
<title>Secret</title>
<path fill="#fdedec" stroke="#e74c3c" d="M350.5,-204C350.5,-204 205.5,-204 205.5,-204 199.5,-204 193.5,-198 193.5,-192 193.5,-192 193.5,-180 193.5,-180 193.5,-174 199.5,-168 205.5,-168 205.5,-168 350.5,-168 350.5,-168 356.5,-168 362.5,-174 362.5,-180 362.5,-180 362.5,-192 362.5,-192 362.5,-198 356.5,-204 350.5,-204"/>
<text text-anchor="middle" x="278" y="-181.72" font-family="Arial" font-size="12.00">Secret: psql&#45;example&#45;for&#45;use</text>
</g>
<!-- ExternalSecret&#45;&gt;Secret -->
<g id="edge9" class="edge">
<title>ExternalSecret&#45;&gt;Secret</title>
<path fill="none" stroke="#f1c40f" stroke-width="2" d="M226,-251.61C234.75,-240.74 246.2,-226.51 256.13,-214.17"/>
<polygon fill="#f1c40f" stroke="#f1c40f" stroke-width="2" points="258.58,-216.71 262.13,-206.72 253.13,-212.32 258.58,-216.71"/>
<text text-anchor="middle" x="266.2" y="-224.5" font-family="Arial" font-size="10.00">Created</text>
</g>
</g>
</svg>
